<mxfile host="app.diagrams.net" modified="2020-11-04T08:45:53.579Z" agent="5.0 (Windows NT 10.0; Win64; x64) AppleWebKit/537.36 (KHTML, like Gecko) Chrome/86.0.4240.111 Safari/537.36" etag="SKbdgju0XRD2nOUWUxTM" version="13.8.9-1" type="github">
  <diagram id="R2lEEEUBdFMjLlhIrx00" name="Page-1">
    <mxGraphModel dx="1422" dy="762" grid="1" gridSize="10" guides="1" tooltips="1" connect="1" arrows="1" fold="1" page="1" pageScale="1" pageWidth="850" pageHeight="1100" math="0" shadow="0" extFonts="Permanent Marker^https://fonts.googleapis.com/css?family=Permanent+Marker">
      <root>
        <mxCell id="0" />
        <mxCell id="1" parent="0" />
        <mxCell id="jAnOBMGHr_YaSFcHeb8Q-2" value="user" style="shape=table;startSize=30;container=1;collapsible=1;childLayout=tableLayout;fixedRows=1;rowLines=0;fontStyle=1;align=center;resizeLast=1;" vertex="1" parent="1">
          <mxGeometry x="120" y="110" width="180" height="190" as="geometry" />
        </mxCell>
        <mxCell id="jAnOBMGHr_YaSFcHeb8Q-3" value="" style="shape=partialRectangle;collapsible=0;dropTarget=0;pointerEvents=0;fillColor=none;top=0;left=0;bottom=1;right=0;points=[[0,0.5],[1,0.5]];portConstraint=eastwest;" vertex="1" parent="jAnOBMGHr_YaSFcHeb8Q-2">
          <mxGeometry y="30" width="180" height="30" as="geometry" />
        </mxCell>
        <mxCell id="jAnOBMGHr_YaSFcHeb8Q-4" value="PK" style="shape=partialRectangle;connectable=0;fillColor=none;top=0;left=0;bottom=0;right=0;fontStyle=1;overflow=hidden;" vertex="1" parent="jAnOBMGHr_YaSFcHeb8Q-3">
          <mxGeometry width="30" height="30" as="geometry" />
        </mxCell>
        <mxCell id="jAnOBMGHr_YaSFcHeb8Q-5" value="User_id" style="shape=partialRectangle;connectable=0;fillColor=none;top=0;left=0;bottom=0;right=0;align=left;spacingLeft=6;fontStyle=5;overflow=hidden;" vertex="1" parent="jAnOBMGHr_YaSFcHeb8Q-3">
          <mxGeometry x="30" width="150" height="30" as="geometry" />
        </mxCell>
        <mxCell id="jAnOBMGHr_YaSFcHeb8Q-6" value="" style="shape=partialRectangle;collapsible=0;dropTarget=0;pointerEvents=0;fillColor=none;top=0;left=0;bottom=0;right=0;points=[[0,0.5],[1,0.5]];portConstraint=eastwest;" vertex="1" parent="jAnOBMGHr_YaSFcHeb8Q-2">
          <mxGeometry y="60" width="180" height="30" as="geometry" />
        </mxCell>
        <mxCell id="jAnOBMGHr_YaSFcHeb8Q-7" value="str" style="shape=partialRectangle;connectable=0;fillColor=none;top=0;left=0;bottom=0;right=0;editable=1;overflow=hidden;" vertex="1" parent="jAnOBMGHr_YaSFcHeb8Q-6">
          <mxGeometry width="30" height="30" as="geometry" />
        </mxCell>
        <mxCell id="jAnOBMGHr_YaSFcHeb8Q-8" value="First name" style="shape=partialRectangle;connectable=0;fillColor=none;top=0;left=0;bottom=0;right=0;align=left;spacingLeft=6;overflow=hidden;" vertex="1" parent="jAnOBMGHr_YaSFcHeb8Q-6">
          <mxGeometry x="30" width="150" height="30" as="geometry" />
        </mxCell>
        <mxCell id="jAnOBMGHr_YaSFcHeb8Q-15" style="shape=partialRectangle;collapsible=0;dropTarget=0;pointerEvents=0;fillColor=none;top=0;left=0;bottom=0;right=0;points=[[0,0.5],[1,0.5]];portConstraint=eastwest;" vertex="1" parent="jAnOBMGHr_YaSFcHeb8Q-2">
          <mxGeometry y="90" width="180" height="30" as="geometry" />
        </mxCell>
        <mxCell id="jAnOBMGHr_YaSFcHeb8Q-16" value="str" style="shape=partialRectangle;connectable=0;fillColor=none;top=0;left=0;bottom=0;right=0;editable=1;overflow=hidden;" vertex="1" parent="jAnOBMGHr_YaSFcHeb8Q-15">
          <mxGeometry width="30" height="30" as="geometry" />
        </mxCell>
        <mxCell id="jAnOBMGHr_YaSFcHeb8Q-17" value="second name" style="shape=partialRectangle;connectable=0;fillColor=none;top=0;left=0;bottom=0;right=0;align=left;spacingLeft=6;overflow=hidden;" vertex="1" parent="jAnOBMGHr_YaSFcHeb8Q-15">
          <mxGeometry x="30" width="150" height="30" as="geometry" />
        </mxCell>
        <mxCell id="jAnOBMGHr_YaSFcHeb8Q-9" value="" style="shape=partialRectangle;collapsible=0;dropTarget=0;pointerEvents=0;fillColor=none;top=0;left=0;bottom=0;right=0;points=[[0,0.5],[1,0.5]];portConstraint=eastwest;" vertex="1" parent="jAnOBMGHr_YaSFcHeb8Q-2">
          <mxGeometry y="120" width="180" height="30" as="geometry" />
        </mxCell>
        <mxCell id="jAnOBMGHr_YaSFcHeb8Q-10" value="str" style="shape=partialRectangle;connectable=0;fillColor=none;top=0;left=0;bottom=0;right=0;editable=1;overflow=hidden;" vertex="1" parent="jAnOBMGHr_YaSFcHeb8Q-9">
          <mxGeometry width="30" height="30" as="geometry" />
        </mxCell>
        <mxCell id="jAnOBMGHr_YaSFcHeb8Q-11" value="email" style="shape=partialRectangle;connectable=0;fillColor=none;top=0;left=0;bottom=0;right=0;align=left;spacingLeft=6;overflow=hidden;" vertex="1" parent="jAnOBMGHr_YaSFcHeb8Q-9">
          <mxGeometry x="30" width="150" height="30" as="geometry" />
        </mxCell>
        <mxCell id="jAnOBMGHr_YaSFcHeb8Q-12" value="" style="shape=partialRectangle;collapsible=0;dropTarget=0;pointerEvents=0;fillColor=none;top=0;left=0;bottom=0;right=0;points=[[0,0.5],[1,0.5]];portConstraint=eastwest;" vertex="1" parent="jAnOBMGHr_YaSFcHeb8Q-2">
          <mxGeometry y="150" width="180" height="30" as="geometry" />
        </mxCell>
        <mxCell id="jAnOBMGHr_YaSFcHeb8Q-13" value="str" style="shape=partialRectangle;connectable=0;fillColor=none;top=0;left=0;bottom=0;right=0;editable=1;overflow=hidden;" vertex="1" parent="jAnOBMGHr_YaSFcHeb8Q-12">
          <mxGeometry width="30" height="30" as="geometry" />
        </mxCell>
        <mxCell id="jAnOBMGHr_YaSFcHeb8Q-14" value="password" style="shape=partialRectangle;connectable=0;fillColor=none;top=0;left=0;bottom=0;right=0;align=left;spacingLeft=6;overflow=hidden;" vertex="1" parent="jAnOBMGHr_YaSFcHeb8Q-12">
          <mxGeometry x="30" width="150" height="30" as="geometry" />
        </mxCell>
        <mxCell id="jAnOBMGHr_YaSFcHeb8Q-18" value="routines" style="shape=table;startSize=30;container=1;collapsible=1;childLayout=tableLayout;fixedRows=1;rowLines=0;fontStyle=1;align=center;resizeLast=1;" vertex="1" parent="1">
          <mxGeometry x="540" y="120" width="180" height="160" as="geometry" />
        </mxCell>
        <mxCell id="jAnOBMGHr_YaSFcHeb8Q-19" value="" style="shape=partialRectangle;collapsible=0;dropTarget=0;pointerEvents=0;fillColor=none;top=0;left=0;bottom=1;right=0;points=[[0,0.5],[1,0.5]];portConstraint=eastwest;" vertex="1" parent="jAnOBMGHr_YaSFcHeb8Q-18">
          <mxGeometry y="30" width="180" height="30" as="geometry" />
        </mxCell>
        <mxCell id="jAnOBMGHr_YaSFcHeb8Q-20" value="PK" style="shape=partialRectangle;connectable=0;fillColor=none;top=0;left=0;bottom=0;right=0;fontStyle=1;overflow=hidden;" vertex="1" parent="jAnOBMGHr_YaSFcHeb8Q-19">
          <mxGeometry width="30" height="30" as="geometry" />
        </mxCell>
        <mxCell id="jAnOBMGHr_YaSFcHeb8Q-21" value="Routine_id" style="shape=partialRectangle;connectable=0;fillColor=none;top=0;left=0;bottom=0;right=0;align=left;spacingLeft=6;fontStyle=5;overflow=hidden;" vertex="1" parent="jAnOBMGHr_YaSFcHeb8Q-19">
          <mxGeometry x="30" width="150" height="30" as="geometry" />
        </mxCell>
        <mxCell id="jAnOBMGHr_YaSFcHeb8Q-22" value="" style="shape=partialRectangle;collapsible=0;dropTarget=0;pointerEvents=0;fillColor=none;top=0;left=0;bottom=0;right=0;points=[[0,0.5],[1,0.5]];portConstraint=eastwest;" vertex="1" parent="jAnOBMGHr_YaSFcHeb8Q-18">
          <mxGeometry y="60" width="180" height="30" as="geometry" />
        </mxCell>
        <mxCell id="jAnOBMGHr_YaSFcHeb8Q-23" value="" style="shape=partialRectangle;connectable=0;fillColor=none;top=0;left=0;bottom=0;right=0;editable=1;overflow=hidden;" vertex="1" parent="jAnOBMGHr_YaSFcHeb8Q-22">
          <mxGeometry width="30" height="30" as="geometry" />
        </mxCell>
        <mxCell id="jAnOBMGHr_YaSFcHeb8Q-24" value="routine name" style="shape=partialRectangle;connectable=0;fillColor=none;top=0;left=0;bottom=0;right=0;align=left;spacingLeft=6;overflow=hidden;" vertex="1" parent="jAnOBMGHr_YaSFcHeb8Q-22">
          <mxGeometry x="30" width="150" height="30" as="geometry" />
        </mxCell>
        <mxCell id="jAnOBMGHr_YaSFcHeb8Q-25" value="" style="shape=partialRectangle;collapsible=0;dropTarget=0;pointerEvents=0;fillColor=none;top=0;left=0;bottom=0;right=0;points=[[0,0.5],[1,0.5]];portConstraint=eastwest;" vertex="1" parent="jAnOBMGHr_YaSFcHeb8Q-18">
          <mxGeometry y="90" width="180" height="30" as="geometry" />
        </mxCell>
        <mxCell id="jAnOBMGHr_YaSFcHeb8Q-26" value="" style="shape=partialRectangle;connectable=0;fillColor=none;top=0;left=0;bottom=0;right=0;editable=1;overflow=hidden;" vertex="1" parent="jAnOBMGHr_YaSFcHeb8Q-25">
          <mxGeometry width="30" height="30" as="geometry" />
        </mxCell>
        <mxCell id="jAnOBMGHr_YaSFcHeb8Q-27" value="description" style="shape=partialRectangle;connectable=0;fillColor=none;top=0;left=0;bottom=0;right=0;align=left;spacingLeft=6;overflow=hidden;" vertex="1" parent="jAnOBMGHr_YaSFcHeb8Q-25">
          <mxGeometry x="30" width="150" height="30" as="geometry" />
        </mxCell>
        <mxCell id="jAnOBMGHr_YaSFcHeb8Q-28" value="" style="shape=partialRectangle;collapsible=0;dropTarget=0;pointerEvents=0;fillColor=none;top=0;left=0;bottom=0;right=0;points=[[0,0.5],[1,0.5]];portConstraint=eastwest;" vertex="1" parent="jAnOBMGHr_YaSFcHeb8Q-18">
          <mxGeometry y="120" width="180" height="30" as="geometry" />
        </mxCell>
        <mxCell id="jAnOBMGHr_YaSFcHeb8Q-29" value="" style="shape=partialRectangle;connectable=0;fillColor=none;top=0;left=0;bottom=0;right=0;editable=1;overflow=hidden;" vertex="1" parent="jAnOBMGHr_YaSFcHeb8Q-28">
          <mxGeometry width="30" height="30" as="geometry" />
        </mxCell>
        <mxCell id="jAnOBMGHr_YaSFcHeb8Q-30" value="date&#xa;" style="shape=partialRectangle;connectable=0;fillColor=none;top=0;left=0;bottom=0;right=0;align=left;spacingLeft=6;overflow=hidden;" vertex="1" parent="jAnOBMGHr_YaSFcHeb8Q-28">
          <mxGeometry x="30" width="150" height="30" as="geometry" />
        </mxCell>
        <mxCell id="jAnOBMGHr_YaSFcHeb8Q-31" value="stets" style="shape=table;startSize=30;container=1;collapsible=1;childLayout=tableLayout;fixedRows=1;rowLines=0;fontStyle=1;align=center;resizeLast=1;" vertex="1" parent="1">
          <mxGeometry x="320" y="400" width="180" height="220" as="geometry" />
        </mxCell>
        <mxCell id="jAnOBMGHr_YaSFcHeb8Q-32" value="" style="shape=partialRectangle;collapsible=0;dropTarget=0;pointerEvents=0;fillColor=none;top=0;left=0;bottom=1;right=0;points=[[0,0.5],[1,0.5]];portConstraint=eastwest;" vertex="1" parent="jAnOBMGHr_YaSFcHeb8Q-31">
          <mxGeometry y="30" width="180" height="30" as="geometry" />
        </mxCell>
        <mxCell id="jAnOBMGHr_YaSFcHeb8Q-33" value="PK" style="shape=partialRectangle;connectable=0;fillColor=none;top=0;left=0;bottom=0;right=0;fontStyle=1;overflow=hidden;" vertex="1" parent="jAnOBMGHr_YaSFcHeb8Q-32">
          <mxGeometry width="30" height="30" as="geometry" />
        </mxCell>
        <mxCell id="jAnOBMGHr_YaSFcHeb8Q-34" value="UniqueID" style="shape=partialRectangle;connectable=0;fillColor=none;top=0;left=0;bottom=0;right=0;align=left;spacingLeft=6;fontStyle=5;overflow=hidden;" vertex="1" parent="jAnOBMGHr_YaSFcHeb8Q-32">
          <mxGeometry x="30" width="150" height="30" as="geometry" />
        </mxCell>
        <mxCell id="jAnOBMGHr_YaSFcHeb8Q-35" value="" style="shape=partialRectangle;collapsible=0;dropTarget=0;pointerEvents=0;fillColor=none;top=0;left=0;bottom=0;right=0;points=[[0,0.5],[1,0.5]];portConstraint=eastwest;" vertex="1" parent="jAnOBMGHr_YaSFcHeb8Q-31">
          <mxGeometry y="60" width="180" height="30" as="geometry" />
        </mxCell>
        <mxCell id="jAnOBMGHr_YaSFcHeb8Q-36" value="FK" style="shape=partialRectangle;connectable=0;fillColor=none;top=0;left=0;bottom=0;right=0;editable=1;overflow=hidden;" vertex="1" parent="jAnOBMGHr_YaSFcHeb8Q-35">
          <mxGeometry width="30" height="30" as="geometry" />
        </mxCell>
        <mxCell id="jAnOBMGHr_YaSFcHeb8Q-37" value="Routine_id" style="shape=partialRectangle;connectable=0;fillColor=none;top=0;left=0;bottom=0;right=0;align=left;spacingLeft=6;overflow=hidden;" vertex="1" parent="jAnOBMGHr_YaSFcHeb8Q-35">
          <mxGeometry x="30" width="150" height="30" as="geometry" />
        </mxCell>
        <mxCell id="jAnOBMGHr_YaSFcHeb8Q-38" value="" style="shape=partialRectangle;collapsible=0;dropTarget=0;pointerEvents=0;fillColor=none;top=0;left=0;bottom=0;right=0;points=[[0,0.5],[1,0.5]];portConstraint=eastwest;" vertex="1" parent="jAnOBMGHr_YaSFcHeb8Q-31">
          <mxGeometry y="90" width="180" height="30" as="geometry" />
        </mxCell>
        <mxCell id="jAnOBMGHr_YaSFcHeb8Q-39" value="" style="shape=partialRectangle;connectable=0;fillColor=none;top=0;left=0;bottom=0;right=0;editable=1;overflow=hidden;" vertex="1" parent="jAnOBMGHr_YaSFcHeb8Q-38">
          <mxGeometry width="30" height="30" as="geometry" />
        </mxCell>
        <mxCell id="jAnOBMGHr_YaSFcHeb8Q-40" value="set_type" style="shape=partialRectangle;connectable=0;fillColor=none;top=0;left=0;bottom=0;right=0;align=left;spacingLeft=6;overflow=hidden;" vertex="1" parent="jAnOBMGHr_YaSFcHeb8Q-38">
          <mxGeometry x="30" width="150" height="30" as="geometry" />
        </mxCell>
        <mxCell id="jAnOBMGHr_YaSFcHeb8Q-41" value="" style="shape=partialRectangle;collapsible=0;dropTarget=0;pointerEvents=0;fillColor=none;top=0;left=0;bottom=0;right=0;points=[[0,0.5],[1,0.5]];portConstraint=eastwest;" vertex="1" parent="jAnOBMGHr_YaSFcHeb8Q-31">
          <mxGeometry y="120" width="180" height="30" as="geometry" />
        </mxCell>
        <mxCell id="jAnOBMGHr_YaSFcHeb8Q-42" value="" style="shape=partialRectangle;connectable=0;fillColor=none;top=0;left=0;bottom=0;right=0;editable=1;overflow=hidden;" vertex="1" parent="jAnOBMGHr_YaSFcHeb8Q-41">
          <mxGeometry width="30" height="30" as="geometry" />
        </mxCell>
        <mxCell id="jAnOBMGHr_YaSFcHeb8Q-43" value="Row 3" style="shape=partialRectangle;connectable=0;fillColor=none;top=0;left=0;bottom=0;right=0;align=left;spacingLeft=6;overflow=hidden;" vertex="1" parent="jAnOBMGHr_YaSFcHeb8Q-41">
          <mxGeometry x="30" width="150" height="30" as="geometry" />
        </mxCell>
        <mxCell id="jAnOBMGHr_YaSFcHeb8Q-60" style="shape=partialRectangle;collapsible=0;dropTarget=0;pointerEvents=0;fillColor=none;top=0;left=0;bottom=0;right=0;points=[[0,0.5],[1,0.5]];portConstraint=eastwest;" vertex="1" parent="jAnOBMGHr_YaSFcHeb8Q-31">
          <mxGeometry y="150" width="180" height="30" as="geometry" />
        </mxCell>
        <mxCell id="jAnOBMGHr_YaSFcHeb8Q-61" style="shape=partialRectangle;connectable=0;fillColor=none;top=0;left=0;bottom=0;right=0;editable=1;overflow=hidden;" vertex="1" parent="jAnOBMGHr_YaSFcHeb8Q-60">
          <mxGeometry width="30" height="30" as="geometry" />
        </mxCell>
        <mxCell id="jAnOBMGHr_YaSFcHeb8Q-62" value="how long/how many" style="shape=partialRectangle;connectable=0;fillColor=none;top=0;left=0;bottom=0;right=0;align=left;spacingLeft=6;overflow=hidden;" vertex="1" parent="jAnOBMGHr_YaSFcHeb8Q-60">
          <mxGeometry x="30" width="150" height="30" as="geometry" />
        </mxCell>
        <mxCell id="jAnOBMGHr_YaSFcHeb8Q-57" style="shape=partialRectangle;collapsible=0;dropTarget=0;pointerEvents=0;fillColor=none;top=0;left=0;bottom=0;right=0;points=[[0,0.5],[1,0.5]];portConstraint=eastwest;" vertex="1" parent="jAnOBMGHr_YaSFcHeb8Q-31">
          <mxGeometry y="180" width="180" height="30" as="geometry" />
        </mxCell>
        <mxCell id="jAnOBMGHr_YaSFcHeb8Q-58" style="shape=partialRectangle;connectable=0;fillColor=none;top=0;left=0;bottom=0;right=0;editable=1;overflow=hidden;" vertex="1" parent="jAnOBMGHr_YaSFcHeb8Q-57">
          <mxGeometry width="30" height="30" as="geometry" />
        </mxCell>
        <mxCell id="jAnOBMGHr_YaSFcHeb8Q-59" value="weight/time" style="shape=partialRectangle;connectable=0;fillColor=none;top=0;left=0;bottom=0;right=0;align=left;spacingLeft=6;overflow=hidden;" vertex="1" parent="jAnOBMGHr_YaSFcHeb8Q-57">
          <mxGeometry x="30" width="150" height="30" as="geometry" />
        </mxCell>
        <mxCell id="jAnOBMGHr_YaSFcHeb8Q-64" value="" style="edgeStyle=entityRelationEdgeStyle;fontSize=12;html=1;endArrow=ERmany;entryX=0;entryY=0.5;entryDx=0;entryDy=0;exitX=1;exitY=0.5;exitDx=0;exitDy=0;" edge="1" parent="1" source="jAnOBMGHr_YaSFcHeb8Q-15" target="jAnOBMGHr_YaSFcHeb8Q-22">
          <mxGeometry width="100" height="100" relative="1" as="geometry">
            <mxPoint x="360" y="270" as="sourcePoint" />
            <mxPoint x="460" y="170" as="targetPoint" />
          </mxGeometry>
        </mxCell>
        <mxCell id="jAnOBMGHr_YaSFcHeb8Q-66" value="" style="edgeStyle=entityRelationEdgeStyle;fontSize=12;html=1;endArrow=ERoneToMany;entryX=1;entryY=0.5;entryDx=0;entryDy=0;exitX=0.5;exitY=1;exitDx=0;exitDy=0;" edge="1" parent="1" source="jAnOBMGHr_YaSFcHeb8Q-18" target="jAnOBMGHr_YaSFcHeb8Q-38">
          <mxGeometry width="100" height="100" relative="1" as="geometry">
            <mxPoint x="560" y="440" as="sourcePoint" />
            <mxPoint x="660" y="340" as="targetPoint" />
          </mxGeometry>
        </mxCell>
      </root>
    </mxGraphModel>
  </diagram>
</mxfile>
